<svg width="32" height="32" viewBox="0 0 32 32" fill="none" xmlns="http://www.w3.org/2000/svg">
  <rect width="32" height="32" rx="5" fill="hsl(220,15%,8%)"/>
  <rect x="4" y="4" width="24" height="24" rx="1.5" stroke="hsl(38,75%,52%)" stroke-width="1.5" fill="none"/>
  <rect x="4" y="5" width="24" height="6" fill="hsl(38,75%,52%)" fill-opacity="0.18"/>
  <rect x="4" y="21" width="24" height="6" fill="hsl(38,75%,52%)" fill-opacity="0.18"/>
  <rect x="6.5" y="6.5" width="3" height="3" rx="0.4" fill="hsl(38,75%,52%)"/>
  <rect x="12" y="6.5" width="3" height="3" rx="0.4" fill="hsl(38,75%,52%)"/>
  <rect x="17.5" y="6.5" width="3" height="3" rx="0.4" fill="hsl(38,75%,52%)"/>
  <rect x="23" y="6.5" width="2.5" height="3" rx="0.4" fill="hsl(38,75%,52%)"/>
  <rect x="6.5" y="22.5" width="3" height="3" rx="0.4" fill="hsl(38,75%,52%)"/>
  <rect x="12" y="22.5" width="3" height="3" rx="0.4" fill="hsl(38,75%,52%)"/>
  <rect x="17.5" y="22.5" width="3" height="3" rx="0.4" fill="hsl(38,75%,52%)"/>
  <rect x="23" y="22.5" width="2.5" height="3" rx="0.4" fill="hsl(38,75%,52%)"/>
  <rect x="7" y="13" width="18" height="7" rx="0.5" stroke="hsl(38,75%,52%)" stroke-width="1" fill="hsl(38,75%,52%)" fill-opacity="0.12"/>
</svg>
